<?xml version="1.0" encoding="UTF-8" standalone="no"?>
<svg
   viewBox="0 0 512 512"
   version="1.1"
   id="svg1"
   sodipodi:docname="sun_rise.svg"
   inkscape:version="1.4 (e7c3feb1, 2024-10-09)"
   xmlns:inkscape="http://www.inkscape.org/namespaces/inkscape"
   xmlns:sodipodi="http://sodipodi.sourceforge.net/DTD/sodipodi-0.dtd"
   xmlns="http://www.w3.org/2000/svg"
   xmlns:svg="http://www.w3.org/2000/svg">
  <defs
     id="defs1">
    <linearGradient
       id="swatch1"
       inkscape:swatch="solid">
      <stop
         style="stop-color:#000000;stop-opacity:1;"
         offset="0"
         id="stop1" />
    </linearGradient>
  </defs>
  <sodipodi:namedview
     id="namedview1"
     pagecolor="#ffffff"
     bordercolor="#000000"
     borderopacity="0.25"
     inkscape:showpageshadow="2"
     inkscape:pageopacity="0.0"
     inkscape:pagecheckerboard="0"
     inkscape:deskcolor="#d1d1d1"
     inkscape:zoom="0.51385506"
     inkscape:cx="23.352888"
     inkscape:cy="199.47259"
     inkscape:window-width="1216"
     inkscape:window-height="594"
     inkscape:window-x="0"
     inkscape:window-y="48"
     inkscape:window-maximized="0"
     inkscape:current-layer="svg1" />
  <!--! Font Awesome Free 6.7.2 by @fontawesome - https://fontawesome.com License - https://fontawesome.com/license/free (Icons: CC BY 4.0, Fonts: SIL OFL 1.1, Code: MIT License) Copyright 2024 Fonticons, Inc. -->
  <path
     d="m 361.5,220.54314 c 5,2.1 8.6,6.6 9.6,11.9 l 19.9,107.9 107.9,19.8 c 5.3,1 9.8,4.6 11.9,9.6 2.1,5 1.5,10.7 -1.6,15.2 l -62.3,90.4 62.3,90.3 c 3.1,4.5 3.7,10.2 1.6,15.2 -2.1,5 -6.6,8.6 -11.9,9.6 l -107.9,19.9 -19.9,107.9 c -1,5.3 -4.6,9.8 -9.6,11.9 -5,2.1 -10.7,1.5 -15.2,-1.6 l -90.3,-62.3 -90.3,62.3 c -4.5,3.1 -10.2,3.7 -15.2,1.6 -5,-2.1 -8.6,-6.6 -9.6,-11.9 l -19.9,-107.9 -107.9,-19.9 c -5.3,-1 -9.8,-4.6 -11.9,-9.6 -2.1,-5 -1.5,-10.7 1.6,-15.2 l 62.3,-90.3 -62.3,-90.3 c -3.1,-4.5 -3.7,-10.2 -1.6,-15.2 2.1,-5 6.6,-8.6 11.9,-9.6 l 107.9,-19.9 19.9,-107.9 c 1,-5.3 4.6,-9.8 9.6,-11.9 5,-2.1 10.7,-1.5 15.2,1.6 l 90.3,62.3 90.3,-62.3 c 4.5,-3.1 10.2,-3.7 15.2,-1.6 z m -201.5,254.8 c 0,-53.01937 42.98067,-95.99996 96,-95.99996 53.01933,0 96,42.98059 96,95.99996 0,53.01937 -42.98067,95.99996 -96,95.99996 -53.01933,0 -96,-42.98059 -96,-95.99996 z m 224,0 c 0,-70.6925 -57.30755,-127.99994 -128,-127.99994 -70.69245,0 -128,57.30744 -128,127.99994 0,70.6925 57.30755,127.99994 128,127.99994 70.69245,0 128,-57.30744 128,-127.99994 z"
     id="path1"
     sodipodi:nodetypes="scccscccscccscccscccscccscccscccsssssssssss"
     style="fill:none;fill-opacity:1;stroke:#000000;stroke-opacity:1;stroke-width:24.6;stroke-dasharray:none;stroke-linejoin:round;stroke-linecap:round" />
  <path
     d="m 268.675,16.22245 c -12.5,-13.4601364 -32.8,-13.6427817 -45.3,-0.407578 l -90.43696,87.958468 c -13.05146,12.69378 -12.5,34.9118 0,48.37193 12.5,13.46013 32.8,13.64278 45.3,0.40757 l 37.12174,-41.81693 -1.28478,99.13147 c -0.24493,18.8987 14.3,34.29868 32,34.45793 17.7,0.15925 32,-14.98182 32,-33.88211 l -2.56956,-102.87904 33.83695,42.14703 c 12.5,13.46014 32.8,13.64278 45.3,0.40758 12.5,-13.23519 13.00629,-35.40156 0,-48.37193 L 268.775,16.11657 Z"
     id="path1-7"
     style="fill:none;stroke:#000000;stroke-width:20;stroke-dasharray:none;stroke-opacity:1"
     sodipodi:nodetypes="ccssccsssccsscc" />
  <g
     id="g1">
    <path
       d="m 295.86019,446.16846 c 27.72225,19.09755 75.83213,24.15505 110.60408,17.93068 32.62491,-5.84004 95.36454,-32.15781 95.36454,-32.15781 l -2.93254,-5.86508 c 0,0 37.55455,-3.7453 51.23086,7.95965 17.74224,14.66199 40.04325,25.8741 62.34426,31.04892 21.19212,4.9284 34.37559,26.12052 29.44719,47.31264 -4.9284,21.19212 -26.12052,34.37559 -47.31264,29.44719 -30.18645,-7.02297 -55.32129,-20.32965 -71.70822,-30.8025 -35.7309,19.22076 -75.77415,31.91139 -116.43345,31.91139 -39.30399,0 -74.66526,-12.19779 -99.06084,-23.28669 -7.14618,-3.32667 -13.67631,-6.53013 -19.22076,-9.48717 -5.54445,2.95704 -11.95137,6.28371 -19.22076,9.48717 -24.39558,11.0889 -59.75685,23.28669 -99.06084,23.28669 -40.6593,0 -80.70255,-12.69063 -116.43345,-31.78818 -16.51014,10.34964 -41.521771,23.77953 -71.70822,30.8025 -21.19212,4.9284 -42.38424,-8.25507 -47.31264,-29.44719 -4.9284,-21.19212 8.25507,-42.38424 29.44719,-47.31264 22.30101,-5.17482 25.464795,16.10185 43.2070356,1.43986 18.6512814,16.30506 43.4027514,-11.88571 43.4027514,-11.88571 l 25.367948,-13.82062 c 0,0 58.660635,24.04768 94.029385,23.15758 33.87203,-0.85244 59.76274,-5.94669 87.48499,-25.04424 10.11952,-0.84164 24.79782,-2.62003 38.47413,7.11356 z"
       id="path1-3"
       style="fill:#ffffff;stroke-width:1.2321"
       sodipodi:nodetypes="csssccsccscccsccsccssscc" />
    <path
       d="m 289.00805,452.91609 c 22.5,15.5 50,26.1 77.5,26.1 26.9,0 89.13015,-14.36985 89.13015,-14.36985 v 0 c 0,0 28.1,-7.8 39.2,1.7 14.4,11.9 32.5,21 50.6,25.2 17.2,4 16.16985,9.46985 12.16985,26.66985 -4,17.2 -21.2,27.9 -38.4,23.9 -24.5,-5.7 -33.16985,-4.76985 -46.46985,-13.26985 -29,15.6 -73.23015,14.16985 -106.23015,14.16985 -31.9,0 -60.6,-9.9 -80.4,-18.9 -5.8,-2.7 -11.1,-5.3 -15.6,-7.7 -4.5,2.4 -9.7,5.1 -15.6,7.7 -19.8,9 -48.5,18.9 -80.4,18.9 -33,0 -65.5,-10.3 -94.500005,-25.8 -13.4,8.4 -33.7,19.3 -58.2,25 -17.1999997,4 -34.4,-6.7 -38.4,-23.9 -4,-17.2 6.7000003,-34.4 23.9000003,-38.4 17.2108037,-12.20276 34.4216077,-11.52161 50.5999997,-18.97563 5.234925,-9.4 39.2,-7.92437 39.2,-7.92437 v 5.33517 c 0,0 50.500005,20.66483 77.400005,20.66483 27.5,0 55,-10.6 77.5,-26.1 11.1,-7.9 25.9,-7.9 37,0 z"
       id="path1-4"
       sodipodi:nodetypes="csssccsccscccsccsccssscc" />
  </g>
</svg>
